<svg width="168" height="32" viewBox="0 0 168 32" fill="none" xmlns="http://www.w3.org/2000/svg">
<g clip-path="url(#clip0_1488_31423)">
<path d="M17.0487 31.9998H12.3991C12.143 31.9998 11.8858 31.9921 11.6298 31.9769C11.4629 31.9671 11.2968 31.9541 11.1314 31.938C10.9961 31.9246 10.8608 31.9091 10.7255 31.8913C10.4484 31.8552 10.1721 31.8099 9.90027 31.7559C9.50088 31.6769 9.1012 31.5773 8.71204 31.4603C8.32733 31.3446 7.94393 31.2087 7.57296 31.0568C7.20492 30.9062 6.84033 30.7362 6.48909 30.5515C6.36917 30.4884 6.24995 30.4231 6.13145 30.3559C5.90533 30.2274 5.68283 30.0917 5.46672 29.9503C5.13883 29.736 4.81775 29.5036 4.51226 29.2596C4.20758 29.0162 3.91131 28.7556 3.63169 28.4851C3.35208 28.2146 3.08302 27.9279 2.83143 27.6329C2.57944 27.3374 2.33919 27.0266 2.11775 26.7091C1.89511 26.3902 1.6862 26.0574 1.49665 25.7198C1.38485 25.5206 1.27828 25.3168 1.17783 25.1108C1.10687 24.965 1.0391 24.8184 0.97453 24.6708C0.956524 24.6296 0.938739 24.5883 0.921174 24.5468C0.785509 24.2265 0.663442 23.8978 0.557473 23.5683C0.436604 23.1918 0.333755 22.805 0.251985 22.4183C0.168784 22.0244 0.1061 21.6268 0.0641653 21.2268C0.0214527 20.8191 3.62653e-05 20.4096 0 19.9999V11.9999C3.11672e-05 11.5902 0.0214477 11.1807 0.0641653 10.773C0.106082 10.373 0.168766 9.97537 0.251985 9.5815C0.333755 9.19494 0.436604 8.80802 0.557473 8.43151C0.677122 8.05929 0.817477 7.68823 0.974467 7.32905C1.13001 6.97324 1.30556 6.62015 1.49659 6.28008C1.68614 5.94234 1.89504 5.60962 2.11768 5.29071C2.33913 4.97337 2.57938 4.6625 2.83136 4.36685C3.08281 4.07209 3.35212 3.78532 3.63163 3.51474C3.91114 3.24416 4.20751 2.98347 4.5122 2.74022C4.81768 2.49622 5.13877 2.26382 5.46666 2.04952C5.79616 1.83402 6.14019 1.63171 6.48903 1.44839C6.84033 1.26363 7.20486 1.0936 7.5729 0.94308C7.94387 0.791081 8.32727 0.655268 8.71198 0.539489C9.1011 0.422389 9.50078 0.322966 9.90021 0.243827C10.3072 0.163286 10.7181 0.102613 11.1313 0.0620308C11.5526 0.020779 11.9757 5.5038e-05 12.399 0H20.6649C21.0883 5.17545e-05 21.5114 0.0207758 21.9326 0.0620308C22.3459 0.102613 22.7568 0.163286 23.1638 0.243827C23.5632 0.322966 23.963 0.422389 24.352 0.539489C24.7369 0.655268 25.1201 0.791081 25.4912 0.94308C25.8591 1.09358 26.2237 1.26361 26.5751 1.44839C26.9239 1.63171 27.2678 1.834 27.5973 2.04952C27.9251 2.26382 28.2463 2.4962 28.5518 2.74022C28.8565 2.98357 29.1528 3.2442 29.4324 3.51474C29.712 3.78528 29.981 4.07209 30.2326 4.36685C30.4846 4.6625 30.7249 4.97337 30.9463 5.29071C31.169 5.6096 31.3779 5.94246 31.5674 6.28008C31.7582 6.62007 31.934 6.973 32.0895 7.32905C32.2464 7.68823 32.3867 8.05929 32.5064 8.43151C32.6274 8.8081 32.7302 9.19502 32.8119 9.5815C32.8951 9.97538 32.9579 10.373 32.9999 10.773C33.0426 11.1807 33.0639 11.5902 33.0638 11.9999V19.9999C33.0638 20.2353 33.0568 20.4719 33.0426 20.7075C33.0323 20.8813 33.0181 21.0548 33.0001 21.2268C32.9581 21.6256 32.8948 22.0265 32.812 22.4183C32.7303 22.805 32.6274 23.1918 32.5064 23.5683C32.499 23.5915 32.4915 23.6148 32.4837 23.638C32.386 23.9355 32.2753 24.2316 32.1535 24.5214C32.1325 24.5714 32.1111 24.6214 32.0895 24.6709C32.0655 24.7256 32.041 24.7802 32.0162 24.8347C31.8795 25.135 31.729 25.4321 31.5674 25.7199C31.3778 26.0575 31.1689 26.3903 30.9462 26.7092C30.8249 26.8832 30.6976 27.0556 30.5657 27.2246C30.4575 27.3633 30.3465 27.4994 30.2326 27.633C29.9809 27.928 29.7117 28.2147 29.4323 28.4852C29.4199 28.4971 29.4075 28.5091 29.3951 28.5209C29.1265 28.7788 28.843 29.0271 28.5518 29.2597C28.5283 29.2784 28.5048 29.2971 28.4811 29.3157C28.2839 29.471 28.0802 29.6214 27.8722 29.7653C27.7813 29.8285 27.6897 29.8902 27.5974 29.9505C27.2679 30.166 26.924 30.3682 26.5751 30.5516C26.2238 30.7363 25.8591 30.9063 25.4913 31.0569C25.1202 31.2089 24.7369 31.3447 24.3521 31.4604C23.9752 31.5739 23.5882 31.6708 23.2012 31.7487L23.1639 31.756C23.1486 31.7592 23.1332 31.762 23.1179 31.7651C22.8703 31.8133 22.6194 31.8542 22.3675 31.8878C22.2228 31.907 22.0779 31.9237 21.9328 31.9381C21.7835 31.9527 21.6334 31.9647 21.4825 31.9741C21.2107 31.9913 20.9372 31.9999 20.6651 31.9999L17.0487 31.9998ZM7.01683 10.1218C6.22385 10.279 5.47059 10.5857 4.80001 11.0245C3.95754 11.5731 3.26752 12.3139 2.79083 13.1816C2.31414 14.0492 2.06544 15.0171 2.06666 15.9999V19.9998C2.06668 20.3413 2.08449 20.6825 2.12002 21.0222C2.15507 21.3555 2.20735 21.687 2.27664 22.0152C2.34454 22.3371 2.43032 22.6595 2.53117 22.9736C2.63108 23.2841 2.74815 23.5931 2.87866 23.8923C3.00846 24.1888 3.15481 24.4829 3.31368 24.7665C3.33823 24.8102 3.36322 24.854 3.38865 24.8977C3.52593 25.1334 3.67438 25.3661 3.83127 25.591C3.94586 25.7551 4.06619 25.9168 4.19119 26.0747C4.2679 26.1717 4.3462 26.267 4.42611 26.3607C4.63567 26.6064 4.86006 26.8454 5.09296 27.0709C5.32506 27.2955 5.57199 27.5127 5.82656 27.7163C6.08113 27.92 6.34909 28.1136 6.62201 28.292C6.89654 28.4715 7.18322 28.64 7.47389 28.7929C7.72575 28.9252 7.98481 29.0481 8.24586 29.1592C8.28949 29.1778 8.33338 29.196 8.37713 29.2139C8.5316 29.2772 8.68817 29.3369 8.84682 29.3931C9.00547 29.4493 9.16537 29.5017 9.32653 29.5502C9.41791 29.5777 9.51 29.6041 9.6028 29.6293C9.83825 29.693 10.0773 29.7491 10.3167 29.7966C10.4469 29.8224 10.5783 29.8458 10.7107 29.8668C10.9204 29.9003 11.1318 29.9275 11.3426 29.9483C11.6936 29.9825 12.0463 29.9997 12.3991 29.9998H20.6649C21.0177 29.9997 21.3703 29.9825 21.7214 29.9483C21.7481 29.9456 21.7749 29.9429 21.8017 29.94L21.841 29.9357C21.8934 29.93 21.9457 29.9238 21.998 29.9173C22.2495 29.8858 22.5005 29.8453 22.7472 29.7966C22.9865 29.7491 23.2257 29.693 23.461 29.6293C23.5537 29.6041 23.6459 29.5778 23.7374 29.5502C24.0588 29.4534 24.3781 29.3402 24.6866 29.2139C24.9927 29.0887 25.2965 28.9471 25.5899 28.7929C25.8808 28.64 26.1673 28.4714 26.4418 28.292C26.6175 28.1769 26.7908 28.056 26.9595 27.9304C27.0536 27.8604 27.1461 27.789 27.2372 27.7164C27.4913 27.5134 27.7382 27.2961 27.9707 27.0709C28.2041 26.8452 28.4286 26.6062 28.6377 26.3608C28.8477 26.1144 29.0479 25.8556 29.2326 25.591C29.2766 25.5279 29.32 25.4642 29.3626 25.3998C29.4998 25.1931 29.6297 24.9809 29.75 24.7666C29.8413 24.604 29.9284 24.4378 30.0105 24.2697C30.0716 24.1449 30.1298 24.0191 30.1851 23.8923C30.243 23.76 30.2981 23.6257 30.3502 23.4905C30.4159 23.3195 30.4769 23.1468 30.5325 22.9736C30.6333 22.6599 30.719 22.3376 30.7872 22.0153C30.8565 21.687 30.9088 21.3556 30.9438 21.0223C30.9779 20.6972 30.9958 20.3656 30.997 20.036V16C30.9971 15.5938 30.955 15.1887 30.8712 14.7908C30.7088 14.0233 30.3918 13.2943 29.9384 12.6454C29.2656 11.6806 28.3181 10.9254 27.2108 10.4715C26.8357 10.3181 26.446 10.2009 26.0471 10.1218C25.6359 10.0407 25.2174 9.99988 24.7977 9.99993H24.2811C23.8615 9.99987 23.443 10.0407 23.0318 10.1218C22.2388 10.279 21.4856 10.5858 20.815 11.0245C19.8183 11.6758 19.0381 12.5928 18.569 13.6645C18.4104 14.0275 18.2894 14.4047 18.2076 14.7907C18.164 14.998 18.1316 15.2073 18.1106 15.4178C18.163 15.4479 18.2145 15.4795 18.265 15.5124C18.6862 15.7867 19.0312 16.1571 19.2696 16.5909C19.5079 17.0247 19.6322 17.5086 19.6316 17.9999C19.6303 18.1142 19.6186 18.2281 19.5967 18.3404C19.5714 18.473 19.5386 18.6042 19.4984 18.7334C19.4008 19.0412 19.2834 19.3428 19.147 19.6365C18.89 20.2029 18.5316 20.8706 18.0816 21.6213C17.8607 21.99 17.4964 22.5797 17.016 23.2954C16.7277 23.725 16.5335 23.9973 16.5318 23.9999C16.5297 23.9973 16.3367 23.7268 16.0474 23.2954C15.7822 22.9003 15.3822 22.289 14.9818 21.6213C14.532 20.8706 14.1736 20.2029 13.9164 19.6365C13.7802 19.3427 13.663 19.0411 13.5653 18.7334C13.5251 18.6042 13.4922 18.473 13.4668 18.3404C13.445 18.2281 13.4333 18.1142 13.432 17.9999C13.4319 17.7968 13.4531 17.5943 13.4951 17.3954C13.5761 17.0116 13.7346 16.6471 13.9613 16.3227C14.1845 16.0034 14.4687 15.7284 14.7987 15.5124C14.8491 15.4794 14.9005 15.4479 14.953 15.4178C14.8143 14.0339 14.1826 12.7398 13.1661 11.7573C12.601 11.2098 11.9318 10.7733 11.1956 10.4715C10.8205 10.3181 10.4307 10.201 10.0318 10.1219C9.62059 10.0408 9.20201 9.99994 8.78237 10H8.26624C7.8466 9.99989 7.42802 10.0407 7.01683 10.1218ZM16.1298 17.0784C15.9426 17.1548 15.7829 17.283 15.6706 17.447C15.5584 17.6109 15.4986 17.8032 15.4989 17.9998C15.4989 18.1258 15.553 18.3198 15.66 18.5766C15.7457 18.782 15.8652 19.0275 16.0153 19.3069C16.2689 19.7792 16.5294 20.1958 16.5319 20.1999C16.5342 20.1962 16.7951 19.7789 17.0485 19.3069C17.1986 19.0277 17.3181 18.782 17.4038 18.5766C17.5109 18.3198 17.5653 18.1259 17.5653 17.9998C17.5652 17.8348 17.5229 17.6724 17.4422 17.527C17.3615 17.3817 17.2449 17.2579 17.1028 17.1667C16.9607 17.0755 16.7975 17.0197 16.6277 17.0043C16.458 16.9889 16.287 17.0144 16.1298 17.0784ZM8.78253 7.99991C9.0648 7.99989 9.3469 8.01373 9.62772 8.04135C9.90326 8.06834 10.1772 8.1088 10.4485 8.1626C10.7151 8.21526 10.9817 8.28175 11.2406 8.35971C11.4958 8.43627 11.7513 8.5268 12.0001 8.62854C13.9818 9.44127 15.5593 10.968 16.399 12.8859C16.446 12.9933 16.4905 13.1023 16.5319 13.2099C16.5737 13.1012 16.6185 12.9923 16.6649 12.8859C17.5046 10.968 19.0821 9.44126 21.0637 8.62854C21.3125 8.52678 21.5681 8.43627 21.8232 8.35971C22.3485 8.20171 22.8888 8.09506 23.4361 8.04135C23.7169 8.01374 23.9989 7.9999 24.2812 7.99991H24.7978C25.08 7.9999 25.3621 8.01374 25.6429 8.04135C25.9184 8.06841 26.1924 8.10887 26.4637 8.1626C26.7303 8.21526 26.9968 8.28175 27.2558 8.35971C27.511 8.43627 27.7665 8.5268 28.0152 8.62854C28.9969 9.0311 29.889 9.61325 30.6427 10.3431C30.7292 10.4271 30.814 10.5128 30.8968 10.6002C30.867 10.3936 30.8303 10.1876 30.7875 9.98454C30.7193 9.6624 30.6337 9.33991 30.5327 9.02619C30.433 8.71591 30.3162 8.40684 30.1853 8.10745C30.0556 7.81077 29.9093 7.51655 29.7503 7.23327C29.5922 6.95171 29.4181 6.67426 29.2327 6.40879C29.0482 6.14453 28.8481 5.88555 28.6379 5.63879C28.4284 5.39325 28.2039 5.15425 27.971 4.9288C27.7381 4.70334 27.4913 4.48631 27.2372 4.28337C26.9825 4.07989 26.7149 3.88637 26.4419 3.70771C26.1673 3.52837 25.8808 3.35971 25.59 3.20689C25.297 3.05303 24.9933 2.91124 24.6867 2.78584C24.3774 2.65908 24.058 2.54615 23.7375 2.44955C23.413 2.35197 23.08 2.26893 22.7473 2.20323C22.4082 2.13614 22.0658 2.08552 21.7214 2.05155C21.3704 2.01728 21.0178 2.00008 20.6649 2.00003H12.399C12.0462 2.00008 11.6936 2.01728 11.3426 2.05155C10.9983 2.0855 10.6559 2.13612 10.3168 2.20323C9.98408 2.26893 9.65087 2.35199 9.32657 2.44955C9.00588 2.54615 8.6864 2.6591 8.37717 2.78584C8.07075 2.91124 7.76688 3.05301 7.47393 3.20689C7.18326 3.35979 6.89658 3.52837 6.62205 3.70771C6.34911 3.88639 6.08152 4.07989 5.8266 4.28337C5.57273 4.48629 5.32583 4.70352 5.093 4.9288C4.86017 5.15407 4.63558 5.39333 4.42615 5.63879C4.2159 5.88539 4.01581 6.14437 3.83133 6.40879C3.64591 6.67424 3.47176 6.95169 3.31374 7.23327C3.15472 7.51655 3.0084 7.81077 2.87873 8.10745C2.74773 8.40686 2.63087 8.71591 2.53123 9.02619C2.43038 9.33991 2.3446 9.66218 2.27658 9.98454C2.23361 10.1876 2.19708 10.3937 2.16705 10.6004C2.24989 10.5128 2.33462 10.4271 2.42123 10.3431C3.17489 9.61325 4.06702 9.0311 5.04865 8.62854C5.29744 8.52678 5.55304 8.43627 5.80823 8.35971C6.06728 8.28171 6.33382 8.21528 6.60023 8.16264C6.87155 8.10892 7.1455 8.06844 7.42103 8.04139C7.70186 8.01377 7.98395 7.99994 8.26622 7.99995L8.78253 7.99991ZM24.1733 18.939C23.7768 18.8602 23.4001 18.7068 23.0647 18.4875C22.5665 18.1618 22.1764 17.7034 21.9417 17.1676C21.8624 16.9861 21.8019 16.7975 21.7612 16.6045C21.6772 16.2055 21.6772 15.7942 21.7612 15.3952C21.8019 15.2022 21.8624 15.0136 21.9417 14.8321C22.1296 14.402 22.4187 14.0204 22.7858 13.7174C23.153 13.4145 23.5882 13.1988 24.0567 13.0873C24.5253 12.9758 25.0142 12.9718 25.4847 13.0754C25.9551 13.179 26.3941 13.3875 26.7666 13.6842C27.1391 13.9809 27.435 14.3577 27.6305 14.7846C27.8261 15.2115 27.916 15.6766 27.8932 16.143C27.8703 16.6094 27.7352 17.0643 27.4988 17.4713C27.2623 17.8783 26.9309 18.2263 26.531 18.4875C26.1956 18.7068 25.819 18.8602 25.4226 18.939C25.0104 19.0202 24.5855 19.0202 24.1733 18.939ZM24.3957 15.0784C24.1583 15.175 23.9665 15.3534 23.8575 15.5792C23.7485 15.8049 23.73 16.0617 23.8057 16.2999C23.8814 16.538 24.0458 16.7405 24.2671 16.8679C24.4883 16.9953 24.7506 17.0386 25.003 16.9894C25.2553 16.9402 25.4798 16.8019 25.6328 16.6015C25.7858 16.4011 25.8563 16.1528 25.8308 15.9049C25.8052 15.657 25.6854 15.427 25.4945 15.2598C25.3037 15.0926 25.0554 15 24.798 14.9999C24.6598 14.9998 24.523 15.0265 24.3957 15.0784ZM7.6413 18.939C7.24487 18.8602 6.8683 18.7068 6.53303 18.4875C6.03465 18.1619 5.64454 17.7034 5.40994 17.1676C5.33061 16.9862 5.2701 16.7975 5.22931 16.6045C5.14535 16.2055 5.14535 15.7942 5.22931 15.3952C5.31048 15.0115 5.46895 14.6471 5.69567 14.3226C6.00981 13.8727 6.44432 13.5138 6.95279 13.2842C7.46127 13.0546 8.02462 12.9629 8.58272 13.019C9.14081 13.0751 9.67269 13.2768 10.1216 13.6026C10.5705 13.9284 10.9195 14.3661 11.1314 14.8689C11.3433 15.3717 11.4102 15.9208 11.3248 16.4575C11.2395 16.9943 11.0051 17.4985 10.6468 17.9164C10.2885 18.3342 9.8196 18.6501 9.29027 18.8302C8.76093 19.0103 8.19099 19.0479 7.6413 18.939ZM7.86714 15.086C7.63186 15.1818 7.44173 15.3588 7.33368 15.5826C7.22563 15.8064 7.20737 16.061 7.28244 16.2971C7.35751 16.5332 7.52056 16.7339 7.73992 16.8602C7.95928 16.9864 8.21931 17.0294 8.46951 16.9805C8.71971 16.9317 8.94222 16.7946 9.09385 16.5959C9.24548 16.3972 9.3154 16.151 9.29004 15.9052C9.26467 15.6594 9.14583 15.4315 8.95659 15.2657C8.76735 15.1 8.52121 15.0082 8.26597 15.0082C8.12902 15.0081 7.99334 15.0345 7.86714 15.086Z" fill="white"/>
<path d="M77.0737 23.7368C77.7942 24.4033 78.7726 24.9384 80.0088 25.342C81.2566 25.7473 82.5515 25.9512 83.8527 25.9473C85.3592 25.9473 86.6364 25.7017 87.6842 25.2104C88.7323 24.7191 89.5142 24.0612 90.03 23.2367C90.5458 22.4122 90.8037 21.4912 90.8037 20.4736C90.8037 19.2806 90.513 18.3332 89.9316 17.6315C89.3553 16.9334 88.6353 16.3966 87.8316 16.0658C87.0129 15.7237 85.9649 15.3948 84.6877 15.079C83.7543 14.8333 83.0175 14.614 82.4773 14.4211C81.9368 14.228 81.4906 13.9649 81.1386 13.6316C80.7866 13.2983 80.6107 12.8685 80.6107 12.3422C80.6105 11.5881 80.9174 10.9828 81.5315 10.5266C82.1456 10.0703 83.083 9.84214 84.3439 9.84214C85.1134 9.8422 85.9075 9.96509 86.7263 10.2107C87.5508 10.4589 88.3431 10.8214 89.0841 11.2894L90.0911 8.63156C89.3543 8.10532 88.4783 7.7018 87.4632 7.42103C86.4514 7.14083 85.4119 6.99942 84.3684 7.00006C82.8619 7.00006 81.5888 7.24568 80.5491 7.7369C79.5093 8.22812 78.7315 8.89037 78.2157 9.72367C77.6999 10.557 77.442 11.4824 77.442 12.5C77.442 13.7105 77.7327 14.671 78.3141 15.3816C78.8829 16.0829 79.5997 16.6204 80.4017 16.9474C81.2122 17.2806 82.2725 17.614 83.5824 17.9474C84.5157 18.1929 85.2526 18.4121 85.793 18.6052C86.3332 18.798 86.7794 19.0656 87.1315 19.4078C87.4836 19.7501 87.6596 20.1843 87.6596 20.7104C87.6594 21.4297 87.3442 22.0086 86.7139 22.4473C86.0836 22.8859 85.1299 23.1051 83.8526 23.1051C82.8039 23.102 81.7627 22.9109 80.7702 22.5393C79.7468 22.1621 78.883 21.6753 78.1789 21.0789L77.0737 23.7368Z" fill="white"/>
<path d="M155.203 13.2106L164.684 25.6841L167.312 25.684V7.2631H164.144V19.7367L154.663 7.2631H152.035V25.6841H155.203V13.2106Z" fill="white"/>
<path d="M133.614 7.2631V25.6841L146.509 25.684V22.8156H136.807V17.7367H145.109V14.921H136.807V10.1315H146.165V7.2631H133.614Z" fill="white"/>
<path d="M111.681 7.26322L119.197 25.6841H122.34L129.832 7.26322H126.639L120.867 21.4736L115.144 7.26322H111.681Z" fill="white"/>
<path d="M95.9369 7.2631V25.6841L108.832 25.684V22.8156H99.1299V17.7367H107.432V14.921H99.1299V10.1315H108.488V7.2631H95.9369Z" fill="white"/>
<path d="M67.9613 21.4999V25.6841H71.0562V21.4999H74.1016V18.6052H71.056V14.8946H68.0597V18.6052H62.435L70.4175 7.26316H67.0036L58.5299 19.1315V21.4999H67.9613Z" fill="white"/>
<path d="M42.6632 23.3947V25.6841L55.3369 25.6842V22.7894H47.2315L51.8245 18.1052C52.9379 16.9825 53.6911 15.9825 54.0843 15.1052C54.477 14.2295 54.6788 13.2655 54.6737 12.2895C54.6737 10.6579 54.117 9.3684 53.0035 8.42104C51.8901 7.47368 50.4 7 48.5333 7C47.1253 6.99974 45.8522 7.26729 44.7141 7.80256C43.5759 8.33783 42.6712 9.08788 42 10.0527L44.235 11.8946C45.1683 10.6139 46.511 9.97364 48.2632 9.97364C49.3111 9.9737 50.1052 10.2018 50.6456 10.658C51.1859 11.1141 51.4561 11.772 51.4561 12.6315C51.4561 13.2105 51.3211 13.7938 51.0509 14.3816C50.7808 14.9693 50.2609 15.6579 49.4911 16.4474L42.6632 23.3947Z" fill="white"/>
</g>
<defs>
<clipPath id="clip0_1488_31423">
<rect width="168" height="32" fill="white"/>
</clipPath>
</defs>
</svg>
